# xmcd CD database file
# Copyright (C) 1995-1998 Ti Kan
#
# Track frame offsets:
#	150
#	11722
#	23332
#	36847
#	51865
#	68917
#	80675
#	95610
#	115617
#	129270
#	149087
#	164187
#	176867
#
# Disc length: 2517 seconds
#
# Revision: 2
# Processed by: cddbd v1.5PL3 Copyright (c) Steve Scherf et al.
# Submitted via: CDex 1.30Release
#
DISCID=b509d30d
DTITLE=Texana Dames - Texana Dames
DYEAR=1900
DGENRE=Blues
TTITLE0=Gotta Get Up and Go
TTITLE1=Quiero Ser Solo Tuya
TTITLE2=Mind Your Own Business
TTITLE3=You Don't Know (How Much I Love You)
TTITLE4=Same Taste In Men
TTITLE5=On The Edge Of Town
TTITLE6=The Mall Parade
TTITLE7=Arriba Nuevo Mexico
TTITLE8=Busy Body
TTITLE9=Blue Light Boogie
TTITLE10=Save My Love For Rainy Days
TTITLE11=Why Baby Why
TTITLE12=Rock and Roll Like We Used To
EXTD=ID3G:   0
EXTT0=
EXTT1=
EXTT2=
EXTT3=
EXTT4=
EXTT5=
EXTT6=
EXTT7=
EXTT8=
EXTT9=
EXTT10=
EXTT11=
EXTT12=
PLAYORDER=
